# xmcd
#
# Track frame offsets:
#	151
#	14768
#	29213
#	44618
#	57462
#	70721
#	83704
#	96424
#	109093
#	122287
#	136357
#	149471
#	162314
#	175759
#	188306
#	201825
#	214727
#	227764
#	241610
#	254430
#
# Disc length: 3580 seconds
#
# Revision: 1
# Processed by: cddbd v1.5.2PL0 Copyright (c) Steve Scherf et al.
# Submitted via: audiograbber 1.83.01
#
DISCID=1e0dfa14
DTITLE=Blind Willie McTell - King Of The Georgia Blues Disc 3 1933 - 1935-
DYEAR=2011
DGENRE=Blues
TTITLE0=Savannah Mama
TTITLE1=Broke Down Engine
TTITLE2=Broke Down Engine No. 2
TTITLE3=Broke Down Engine No. 2
TTITLE4=My Baby's Gone
TTITLE5=Love-Makin' Mama
TTITLE6=Love Makin' Mama
TTITLE7=Death Room Blues
TTITLE8=Death Room Blues
TTITLE9=Death Cell Blues
TTITLE10=Lord, Send Me An Angel
TTITLE11=Lord, Send Me An Angel
TTITLE12=B and O Blues No. 2
TTITLE13=B and O Blues No. 2
TTITLE14=Weary Hearted Blues
TTITLE15=Bell Street Lightnin'
TTITLE16=Southern Can Mama
TTITLE17=Runnin'Me Crazy
TTITLE18=East St. Louis Blues
TTITLE19=Ain't It Grand To Be A Christian
EXTD=
EXTT0=
EXTT1=
EXTT2=
EXTT3=
EXTT4=
EXTT5=
EXTT6=
EXTT7=
EXTT8=
EXTT9=
EXTT10=
EXTT11=
EXTT12=
EXTT13=
EXTT14=
EXTT15=
EXTT16=
EXTT17=
EXTT18=
EXTT19=
PLAYORDER=
